<svg viewBox="0 0 900 900" width="900" height="900" xmlns="http://www.w3.org/2000/svg" xmlns:xlink="http://www.w3.org/1999/xlink" version="1.1">
   <rect x="0" y="0" width="900" height="900" fill="#05123b"></rect>
   <defs>
      <linearGradient id="grad1_0" x1="0%" y1="100%" x2="100%" y2="0%">
         <stop offset="30%" stop-color="#05123b" stop-opacity="1"></stop>
         <stop offset="70%" stop-color="#05123b" stop-opacity="1"></stop>
      </linearGradient>
   </defs>
   <defs>
      <linearGradient id="grad2_0" x1="0%" y1="100%" x2="100%" y2="0%">
         <stop offset="30%" stop-color="#05123b" stop-opacity="1"></stop>
         <stop offset="70%" stop-color="#05123b" stop-opacity="1"></stop>
      </linearGradient>
   </defs>
   <g transform="translate(900, 900)">
      <path d="M-540.9 0C-520.9 -52 -500.9 -104 -482.2 -156.7C-463.4 -209.3 -446 -262.7 -411.8 -299.2C-377.6 -335.7 -326.8 -355.4 -285.7 -393.2C-244.5 -431 -213.1 -486.8 -167.2 -514.5C-121.2 -542.1 -60.6 -541.5 0 -540.9L0 0Z" fill="#122969"></path>
   </g>
   <g transform="translate(0, 0)">
      <path d="M540.9 0C534.1 58.5 527.3 117 500.3 162.5C473.2 208.1 425.8 240.8 395.6 287.4C365.4 334 352.2 394.5 316.8 436.1C281.4 477.6 223.7 500.1 167.2 514.5C110.6 528.8 55.3 534.9 0 540.9L0 0Z" fill="#122969"></path>
   </g>
</svg>